<svg width="238" height="32" viewBox="0 0 238 32" fill="none" xmlns="http://www.w3.org/2000/svg">
<path d="M135.41 31.3826C134.543 31.3826 133.825 31.0973 133.254 30.5267C132.684 29.9456 132.409 29.2376 132.409 28.3817C132.409 27.5259 132.684 26.8073 133.254 26.2367C133.825 25.6662 134.543 25.3809 135.41 25.3809C135.928 25.3809 136.414 25.4971 136.857 25.7507C137.301 25.9937 137.65 26.3213 137.904 26.7439L136.625 27.473C136.519 27.2723 136.35 27.1138 136.139 26.9975C135.917 26.8707 135.674 26.8179 135.41 26.8179C134.945 26.8179 134.575 26.9553 134.29 27.2511C134.015 27.5364 133.867 27.9168 133.867 28.3817C133.867 28.8467 134.015 29.2271 134.29 29.5124C134.575 29.7977 134.945 29.9456 135.41 29.9456C135.674 29.9456 135.917 29.8822 136.139 29.766C136.35 29.6497 136.519 29.4807 136.625 29.2799L137.904 30.0196C137.65 30.4422 137.301 30.7698 136.857 31.0128C136.414 31.2558 135.938 31.3826 135.41 31.3826ZM154.25 30.5162C153.669 31.0868 152.95 31.3826 152.105 31.3826C151.26 31.3826 150.552 31.0868 149.97 30.5162C149.379 29.935 149.093 29.2271 149.093 28.3817C149.093 27.5364 149.379 26.8285 149.97 26.2473C150.552 25.6662 151.26 25.3809 152.105 25.3809C152.95 25.3809 153.669 25.6662 154.25 26.2473C154.831 26.8285 155.127 27.5364 155.127 28.3817C155.127 29.2271 154.831 29.935 154.25 30.5162ZM150.995 29.5018C151.291 29.7977 151.661 29.9456 152.105 29.9456C152.549 29.9456 152.919 29.7977 153.214 29.5018C153.51 29.2059 153.658 28.8361 153.658 28.3817C153.658 27.9274 153.51 27.547 153.214 27.2617C152.919 26.9658 152.549 26.8179 152.105 26.8179C151.661 26.8179 151.291 26.9658 150.995 27.2617C150.7 27.547 150.552 27.9274 150.552 28.3817C150.552 28.8361 150.7 29.2059 150.995 29.5018ZM172.699 25.4971V31.2558H171.241V28.1599L169.836 30.4633H169.688L168.303 28.1704V31.2558H166.824V25.4971H168.303L169.762 27.9591L171.241 25.4971H172.699ZM186.869 25.4971C187.45 25.4971 187.936 25.6873 188.337 26.0677C188.728 26.4481 188.929 26.9341 188.929 27.5153C188.929 28.107 188.728 28.5825 188.337 28.9629C187.936 29.3433 187.45 29.5335 186.869 29.5335H186.108V31.2558H184.629V25.4971H186.869ZM186.869 28.1282C187.038 28.1282 187.175 28.0753 187.281 27.9591C187.397 27.8429 187.45 27.6949 187.45 27.5153C187.45 27.3357 187.397 27.1877 187.281 27.0715C187.175 26.9658 187.038 26.9024 186.869 26.9024H186.108V28.1282H186.869ZM203.574 31.2558L203.289 30.4317H201.334L201.091 31.2558H199.496L201.324 25.4971H203.183L205.085 31.2558H203.574ZM201.715 29.1637H202.877L202.285 27.1983L201.715 29.1637ZM219.699 25.4971H221.157V31.2558H220.026L217.998 28.3606V31.2558H216.529V25.4971H217.67L219.699 28.3923V25.4971ZM238 25.4971L236.056 29.0474V31.2558H234.587V29.058L232.643 25.4971H234.291L235.316 27.6315L236.341 25.4971H238Z" fill="#2B2A28"/>
<path fill-rule="evenodd" clip-rule="evenodd" d="M165.028 0.0634766L180.941 17.868H174.907L158.994 0.0634766H165.028Z" fill="#CB8734"/>
<path fill-rule="evenodd" clip-rule="evenodd" d="M182.769 0.0634766L198.682 17.868H192.659L176.746 0.0634766H182.769Z" fill="#CB8734"/>
<path fill-rule="evenodd" clip-rule="evenodd" d="M200.563 0.0634766L216.476 17.868H210.442L194.529 0.0634766H200.563Z" fill="#CB8734"/>
<path fill-rule="evenodd" clip-rule="evenodd" d="M228.173 11.7817L233.604 17.868H228.754L223.313 11.7817L219.392 7.45995H231.576C232.442 7.45995 233.161 6.752 233.161 5.88554C233.161 5.02966 232.442 4.31113 231.576 4.31113H216.92L212.598 0H231.576C234.819 0 237.472 2.65219 237.472 5.88554C237.472 9.12946 234.819 11.7817 231.576 11.7817H228.173ZM0 0.063399H12.2254H16.5366H28.762V4.37453H16.5366V17.868H12.2254V4.37453H0V0.063399ZM50.7087 0.063399H64.6776C69.3163 0.063399 73.1097 3.85678 73.1097 8.48491V9.43589C73.1097 14.0746 69.3163 17.868 64.6776 17.868H50.7087C46.07 17.868 42.2766 14.0746 42.2766 9.43589V8.48491C42.2766 3.85678 46.07 0.063399 50.7087 0.063399ZM50.7087 4.37453H64.6776C66.9388 4.37453 68.788 6.22367 68.788 8.48491V9.43589C68.788 11.6971 66.9388 13.5463 64.6776 13.5463H50.7087C48.4474 13.5463 46.5983 11.6971 46.5983 9.43589V8.48491C46.5983 6.22367 48.4474 4.37453 50.7087 4.37453ZM93.6087 0.063399V9.62609L93.6932 9.53099L108.497 0.063399H116.221L104.323 7.49165L119.063 17.868H111.255L100.139 10.1016L93.6087 14.1803V17.868H89.287V14.1803V0.063399H93.6087ZM146.6 0.0950986L162.872 17.868H142.648L146.959 13.5463H153.066L146.642 6.51954L136.276 17.868H130.697L146.6 0.0950986Z" fill="#2B2A28"/>
</svg>
